<?xml version="1.0" encoding="utf-8"?>
<!-- Generator: Adobe Illustrator 19.0.0, SVG Export Plug-In . SVG Version: 6.00 Build 0)  -->
<svg version="1.1" id="Capa_1" xmlns="http://www.w3.org/2000/svg" xmlns:xlink="http://www.w3.org/1999/xlink" x="0px" y="0px"
	 viewBox="0 0 792 392.7" style="enable-background:new 0 0 792 392.7;" xml:space="preserve">
<style type="text/css">
	.st0{fill:url(#SVGID_1_);}
	.st1{fill:url(#SVGID_2_);}
	.st2{fill:url(#SVGID_3_);}
	.st3{fill-rule:evenodd;clip-rule:evenodd;fill:#DE307A;}
	.st4{fill:url(#SVGID_4_);}
	.st5{fill:url(#SVGID_5_);}
	.st6{fill:url(#SVGID_6_);}
</style>
<g>
	<linearGradient id="SVGID_1_" gradientUnits="userSpaceOnUse" x1="350.8203" y1="229.8234" x2="746.6973" y2="229.8234">
		<stop  offset="0" style="stop-color:#76C6E4"/>
		<stop  offset="1" style="stop-color:#2295B7"/>
	</linearGradient>
	<path class="st0" d="M746.7,308.3c-35,6-203.6,36.4-232.3,33.3c-10.9-1.2-25.5-2-36.9-14c-4.1-4.3-8.4-11.4-12.7-21.3
		c-2.2-4.8-5.1-12.3-8.7-22.6c10.4-40,10.1-39.3,18.9-63.9c18.9-8.3,46.8-24.6,63.1-39.5c20.6-18.8,27.6-39.2,26.9-56.1
		c-0.3-7-2.1-12.9-5.6-17.6c-4-5.4-9.3-8-16-7.7c-18.9,0.8-38.3,2.1-61.9,40c-5.8,9.3-15.7,28.5-31.6,72.9c-2.9,0.3-7.4,0.5-8.6,0.5
		c-8.8,0.4-16.4,0.7-23.4-4.9c-7-5.7-10.6-12.9-11-21.7c-1.6-38.6,28.9-65.5,91.4-80.6c-19.8-1-30.9-1.4-33.2-1.3
		c-18.1,0.7-34.7,9.6-49.8,26.7c-15,17.1-22.2,34.7-21.5,52.8c0.5,13.3,6.2,25.5,17.1,31.7c9.2,5.4,21.5,10.8,35.5,10.2l-10,46.6
		c-20.1-8.2-37.6-11.7-52.6-11.4c-18.4,0.4-33,4.5-33,29.9c0,9,4.6,16,14.4,20.8c8.3,4.1,16.4,5,25,4.8c11.3-0.3,27.9-5.7,44.5-17.4
		c6.3,17.2,11.3,28.9,27.5,42.9c13.6,11.7,26.5,15,43.4,18.1c17.8,3.3,50.5-1.2,82.2-6.6C651.8,342.2,680.8,329,746.7,308.3
		L746.7,308.3z M505.9,146.6c14.3-28.1,27-42.4,37.9-42.8c7.4-0.3,11.2,4,11.6,12.8c1.4,34.5-26,64.2-75.8,88.9
		C487.7,180.8,494.4,169.2,505.9,146.6z M395.5,308.3c-18.8,3.9-33.5-5.1-35.8-15.9c-2.3-10.8,4.5-24.5,27.8-24.3
		c23,0.1,47.6,17,47.6,17S414.3,304.4,395.5,308.3z"/>
	<g>
		<linearGradient id="SVGID_2_" gradientUnits="userSpaceOnUse" x1="27.9731" y1="142.6729" x2="143.6377" y2="142.6729">
			<stop  offset="0" style="stop-color:#76C6E4"/>
			<stop  offset="1" style="stop-color:#2295B7"/>
		</linearGradient>
		<path class="st1" d="M114.8,105.4c-2.2,0.4-4.3-0.1-6.3-1.4c-1.9-1.3-3-4.2-3.2-8.7c-2,3.1-3.8,6.3-5.2,9.6
			c-1.4,3.4-2.1,6.2-2.1,8.6c0,2.8,0.7,5.2,2,7.2c1.3,2,3.7,3.3,7.2,3.9c5.1,0,9.9-1.2,14.3-3.5c4.4-2.3,8.2-5.5,11.5-9.3
			c3.3-3.9,5.9-8.3,7.8-13.1c1.9-4.9,2.9-10,2.9-15.3c0-6.1-1.6-11.7-4.9-16.8c-3.3-5.1-7.5-9.5-12.6-13.1c-5.1-3.7-10.8-6.5-17-8.6
			c-6.2-2-12.3-3.1-18.3-3.1c-9.8,0.6-18.4,3.8-25.8,9.6c-7.4,5.8-13.6,13.1-18.7,21.9c-5.1,8.8-9.2,18.3-12.1,28.6
			c-3,10.3-4.9,20.4-5.7,30.2v-0.3c-0.4,2.3-0.6,4.7-0.6,7.2c0,2.6,0,5,0,7.2c0,13.7,1.5,26.4,4.6,38.1c3.1,11.7,7.5,22,13.3,30.6
			c5.8,8.7,12.8,15.5,21,20.5c8.2,5,17.5,7.6,27.9,7.8c17.2,0.4,29.7-4.8,37.6-15.6c7.9-10.8,11.3-25.9,10.3-45.1
			c-4.3,6.1-8.2,11-11.8,14.7c-3.6,3.7-7.2,6.5-10.7,8.4c-3.6,1.9-7.2,3.2-10.9,3.7c-3.7,0.5-7.7,0.8-12,0.8
			c-7,0.2-13.6-1.7-19.8-5.7c-6.2-4-11.7-9.4-16.4-16.3c-4.7-6.9-8.5-14.8-11.5-23.9c-3-9.1-4.6-18.7-4.8-28.7
			c-0.4-12.7,0.8-23.1,3.5-31.3c2.8-8.2,6.4-14.6,10.9-19.3c4.5-4.7,9.5-8,14.9-10c5.4-1.9,10.6-3,15.5-3.2
			c5.3-0.2,11.1,1.2,17.5,4.3c6.3,3.1,11.4,8.4,15,15.8h-0.3c1.2,3.3,1,6.2-0.8,8.8C119.3,103.5,117.3,105,114.8,105.4z"/>
		<linearGradient id="SVGID_3_" gradientUnits="userSpaceOnUse" x1="148.0801" y1="186.1764" x2="230.0552" y2="186.1764">
			<stop  offset="0" style="stop-color:#76C6E4"/>
			<stop  offset="1" style="stop-color:#2295B7"/>
		</linearGradient>
		<path class="st2" d="M225.5,156.9c-1.1,6.3-2.5,12.9-4.3,19.8c-1.8,6.9-3.7,13.3-5.8,19.1c-2.1,5.8-4.2,10.6-6.5,14.3
			c-2.2,3.7-4.4,5.4-6.6,5.3c-1.3,0-2.2-1.3-2.7-3.9c-0.5-2.6-0.9-5.9-0.9-10c-0.1-4,0-8.4,0.3-13.1c0.3-4.7,0.6-9.2,0.9-13.5
			c0.4-4.3,0.7-8.1,1.1-11.3c0.4-3.2,0.6-5.3,0.8-6.2c-0.5-2.5-1.8-4.2-3.8-5.1c-2-0.9-4-1.2-6.2-0.9c-2.2,0.3-4.1,1-5.9,2.2
			c-1.8,1.2-2.8,2.6-3,4.2c-0.4,2.7-0.9,6.7-1.8,12.1c-0.8,5.4-1.7,10.9-2.7,16.6c-1,5.7-2,10.8-3.1,15.5c-1.1,4.7-2,7.6-2.7,8.9
			c-1.3-0.9-2.2-2.9-2.8-6.1c-0.6-3.1-1-6.9-1.1-11.3c-0.1-4.4,0-9.1,0.4-14c0.4-4.9,1-9.6,1.9-13.9c0.9-4.3,2-8.1,3.4-11.3
			c1.3-3.2,2.8-5.4,4.4-6.5c1.8-1.1,3.5-1.3,5.1-0.8c1.6,0.5,3.3,1.1,5.1,1.6c1.8,0.9,3.4,1.5,4.7,1.9c1.3,0.4,1.8-0.3,1.2-1.9
			c-0.4-1.4-1.1-2.6-2.2-3.5c-1.1-0.9-2.5-1.8-4.3-2.7c-1.1-0.9-2.9-1.8-5.5-2.6c-2.6-0.8-6.5-1.1-11.7-0.9
			c-4.7,0.2-8.5,1.9-11.6,5.3c-3.1,3.3-5.4,7.4-7.1,12.3c-1.7,4.9-2.9,10-3.5,15.4c-0.6,5.4-0.9,10.2-0.9,14.6
			c0,5.4,0.3,10.9,0.8,16.4c0.5,5.6,1.5,10.6,2.8,15.1c1.3,4.5,3.1,8.2,5.4,11.1c2.2,2.9,5,4.3,8.2,4.3c2,0.2,3.3,0.2,4,0.1
			c0.7-0.1,1.5-0.1,2.4-0.1c1.8-0.2,3.3-1.3,4.6-3.2c1.3-2,2.2-4.5,3-7.6c0.4-1.6,0.7-3.5,1.1-5.7c0.4-2.2,0.7-4.2,1.1-6.2
			c0.4-1.1,0.6-2.2,0.8-3.4c0.2-1.2,0.4-2.4,0.5-3.6c0.7,5.2,1.4,9.6,2.2,13.1c0.7,3.5,1.5,6.8,2.4,9.8c1.1,3.6,2.7,5.6,5,6.1
			c2.2,0.5,4.6,0.8,7.1,0.9c4.3,0.2,8-0.9,11.1-3.4c3.1-2.4,5.6-5.7,7.7-9.8c2.1-4.1,3.7-8.8,5-14c1.3-5.2,2.3-10.5,3.1-15.8
			c0.8-5.3,1.5-10.5,2-15.5c0.5-5,1.1-9.3,1.6-12.9L225.5,156.9z"/>
	</g>
	<g>
		<path class="st3" d="M381,189.1c-1.1-4.3-2.7-9.1-7-10.3c-6.8-2-11.8-5.6-15.8-11.2c-2-2.9-4.1-5.7-6.5-8.2
			c-7.3-7.6-10.2-17.1-12.2-27.1c-0.9-4.8-0.4-9.5-1.5-14.6c-2-9.3-6.8-17.6-7.2-26.8c-0.5-10.2-5.3-16.6-14-20.7
			c-5.9-2.8-14.2-0.6-17.6,5c-2.7,4.4-5.2,9-7.1,13.8c-0.7,1.8,0.4,4.6,1.2,6.6c2.3,6.2,3.4,10.4,0.4,15.4c-1.2-0.4-2.2-0.7-3.2-1
			c-8.2-2.6-11.6-0.8-14.4,7.4c-0.6,1.9-1,3.9-1.4,5.9c-1.4,6.6-2,13.5-4.5,19.6c-3.9,9.5-8.9,18.6-13.9,27.7
			c-1.4,2.5-4,5.2-6.6,6.1c-4.6,1.7-8.2,3.5-10.6,8.2c-4.7,9.2-3.7,15.8,3.8,23c6.4,6.2,14.6,8.5,22.5,11.3
			c6.4,2.3,12.9,4.4,19.8,6.7c-0.4,0.6-0.9,1.9-1.4,3.3c-1.8,4.9-3.7,10.9-8.5,12.7c-0.3,0-0.5,0-0.8,0.1c-0.3,0.1-0.5,0.2-0.8,0.3
			h0c-0.4,0.1-0.7,0.2-1,0.4c-1.2,0.5-2.3,0.9-3.5,1.5c-2,1-2.1,2.5-1.9,4.3c0,0.3,0.2,0.5,0.5,0.6c0.8,0.2,1.5,0.5,2.3,0.7
			c3.1,0.9,6.2,1.2,9.4,1.2c0.7,0,1.4,0,2.1-0.2c1.7-0.3,2.8-1.5,3.7-3c1-1.7,1.9-3.4,2.7-5.1c1.4-2.9,3.1-5.7,5-8.4
			c0.3-0.5,0.9-0.9,1.4-1.2c0.7-0.4,1.4,0,1.6,0.8c0.1,0.4,0.1,0.8,0.1,1.2c0.1,2,0.2,4,0.4,6.1c0.1,2.7,0.3,5.3,0.4,8
			c0,0.3,0,0.6,0,0.9c0.5-0.1,0.9-0.1,1.4-0.2c0-0.3,0-0.5,0-0.8c0-2.4,0.1-4.9,0.1-7.3c0.1-1.8,0.1-3.6,0.4-5.4
			c0.4-2.5,1.5-4.9,1.5-7.4c0-4.4-1.9-8.9-3.6-11.2c-0.3-0.4-2.2-1.5-2.5-1.8c1.6,0,4.6,0.8,5.9,0.4c2.1-0.6,3.8-2.4,5.9-3.2
			c0.8-0.3,2.1,0.5,3.1,0.9c2.2,0.8,4.2,2.2,6.5,2.6c2.2,0.4,5.8-0.5,8.3-0.5c-1.6,2.8-5,6.6-4.3,9.5c0.6,2.4,0.8,3.8,1.2,6.3
			c0.3,1.8,0.3,3.6,0.4,5.4c0.1,2.4,0.1,4.9,0.1,7.3c0,0.2,0,0.5,0,0.8c0.5,0.1,0.9,0.1,1.4,0.2c0-0.4-0.1-0.7,0-0.9
			c0.1-2.7,0.3-5.3,0.4-8c0.1-2,0.2-4,0.4-6.1c0-0.4,0-0.8,0.1-1.2c0.2-0.8,0.9-1.2,1.6-0.8c0.5,0.3,1.1,0.7,1.4,1.2
			c1.9,2.7,3.6,5.4,5,8.4c0.8,1.7,1.8,3.4,2.7,5.1c0.8,1.4,1.9,2.6,3.7,3c0.7,0.1,1.4,0.2,2.1,0.2c3.2,0,6.3-0.3,9.4-1.2
			c0.8-0.2,1.5-0.5,2.3-0.7c0.3-0.1,0.5-0.3,0.5-0.6c0.2-1.8,0.1-3.3-1.9-4.3c-1.1-0.6-2.3-1-3.5-1.5c-0.3-0.2-0.6-0.3-1-0.4
			c0,0,0,0,0,0c-0.3-0.1-0.5-0.2-0.8-0.3c-0.3-0.1-0.5-0.1-0.8-0.1c-4.8-1.8-6.7-7.9-8.5-12.7c0-0.1-0.1-0.3-0.1-0.4
			c10.6-3.7,21.1-7.6,31.4-11.9c7.2-3,11-9.7,14.3-16.3C382.5,194.4,381.5,191.4,381,189.1z M290.8,175.7c-1.3,3.4-4.1,6-5.9,9.2
			c-1.4,2.4-4.3,4.1-7.1,3.2c-6.6-2.1-13.4-3.8-20.6-5.8c1.9-2,3.9-4.6,6.4-6.8c8.9-8,16.3-16.8,18.4-29.1c0.3-1.5,1.1-3,1.6-4.5
			c0.3,0,0.6,0,0.8,0.1c0.7,3.7,1.3,7.4,2.1,11.1c1.2,5.2,2.5,10.4,4.1,15.5C291.6,171.7,292.2,171.9,290.8,175.7z M359.9,182.3
			c-2.5,0.3-5,0.3-7.4,0.9c-5.1,1.3-10.1,2.7-15.1,4.4c-2.1,0.7-3.3,0.4-4.3-1.5c-2.1-4.2-4.4-8.4-6-12.8c-0.8-2.1-0.7-4.7-0.6-7
			c0.4-5.5,1.1-11,1.7-16.5c0.1-1.3,0.4-2.6,0.9-5.1c2.5,5.1,4.9,9.1,6.3,13.4c2.4,7.4,7.8,12.2,13.7,16.4c3.5,2.5,7.3,4.6,11,6.9
			C360,181.7,359.9,182,359.9,182.3z"/>
		<path class="st3" d="M310.8,209.9c0,6.5-5.2,11.7-11.7,11.7c-6.5,0-11.7-5.2-11.7-11.7c0-6.4,5.2-11.7,11.7-11.7
			C305.6,198.2,310.8,203.4,310.8,209.9z"/>
		<path class="st3" d="M331.3,209c0,6.5-5.2,11.7-11.7,11.7c-6.5,0-11.7-5.2-11.7-11.7c0-6.5,5.2-11.7,11.7-11.7
			C326,197.3,331.3,202.5,331.3,209z"/>
	</g>
	<g>
		<linearGradient id="SVGID_4_" gradientUnits="userSpaceOnUse" x1="517.4707" y1="219.0605" x2="533.7451" y2="219.0605">
			<stop  offset="0" style="stop-color:#76C6E4"/>
			<stop  offset="1" style="stop-color:#2295B7"/>
		</linearGradient>
		<path class="st4" d="M517.8,222.8c0.1,2.3,0.2,3.8,0.3,4.5c0.4,0.3,1.4,0.8,2.9,1.5c1.5,0.7,3.1,1.4,4.9,2.1
			c1.8,0.7,3.4,1.4,4.9,1.9c1.5,0.6,2.5,0.9,2.9,0.9c-0.1-3.6-0.2-6.9-0.1-10.1c0.1-3.1,0-5.9-0.2-8.2c-0.2-2.4-0.8-4.3-1.6-5.8
			c-0.9-1.5-2.3-2.5-4.3-2.9c-2.1-0.4-4-0.9-5.7-1.3c-1.6-0.4-3.1-0.8-4.4-1.1c0.1,0.6,0.2,2,0.2,4.2c0,2.2,0,4.6,0,7.1
			C517.7,218.1,517.7,220.5,517.8,222.8z"/>
		<linearGradient id="SVGID_5_" gradientUnits="userSpaceOnUse" x1="591.9883" y1="219.0605" x2="608.2568" y2="219.0605">
			<stop  offset="0" style="stop-color:#76C6E4"/>
			<stop  offset="1" style="stop-color:#2295B7"/>
		</linearGradient>
		<path class="st5" d="M592.2,215.6c0,2.5,0,4.9,0.1,7.2c0.1,2.3,0.2,3.8,0.3,4.5c0.4,0.3,1.4,0.8,2.9,1.5c1.5,0.7,3.1,1.4,4.9,2.1
			c1.8,0.7,3.4,1.4,4.9,1.9c1.5,0.6,2.5,0.9,2.9,0.9c-0.1-3.6-0.2-6.9-0.1-10.1c0.1-3.1,0-5.9-0.2-8.2c-0.2-2.4-0.7-4.3-1.6-5.8
			c-0.9-1.5-2.3-2.5-4.3-2.9c-2.1-0.4-4-0.9-5.7-1.3c-1.6-0.4-3.1-0.8-4.4-1.1c0.1,0.6,0.2,2,0.2,4.2
			C592.2,210.8,592.2,213.1,592.2,215.6z"/>
		<linearGradient id="SVGID_6_" gradientUnits="userSpaceOnUse" x1="518.1162" y1="260.8978" x2="771.4291" y2="260.8978">
			<stop  offset="0" style="stop-color:#76C6E4"/>
			<stop  offset="1" style="stop-color:#2295B7"/>
		</linearGradient>
		<path class="st6" d="M768.7,268.2c-1.5-2.7-3.1-5.5-4.7-8.3c4.7-7.2,8.3-13.6,6.6-14.7c-1.1-0.7-0.6-3.8-10.7,6.1
			c-0.7-1.8-1.3-3.6-1.8-5.5c-1.1-4.3-0.9-9.2,0.9-14.8c0.4-1.3,0.4-2.5-0.1-3.5c-0.5-1.1-1.4-2.6-2.7-4.6c-1.9-2.7-3.9-4.6-6-5.7
			c-2.1-1.1-4.2-1.6-6.1-1.5c-1.9,0.1-3.6,0.6-4.9,1.6c-1.4,1-2.2,2.2-2.5,3.6c-0.7,4.1-1.5,7.8-2.3,11.3l-0.1-0.1
			c-0.1,0.8-0.3,1.6-0.5,2.3c-0.9,3.8-1.9,7.7-3.1,11.5c-1.2,4-2.5,8.1-3.8,12.4c-1.4,4.3-2.9,8.9-4.6,13.9c0,0,0,0.1,0,0.1
			c-0.4,0.7-0.8,1.4-1.1,2c-1.8,2.9-3.5,4.3-5.2,4.2c-1,0-1.7-1.3-2.1-3.9c-0.4-2.6-0.7-5.8-0.7-9.7c-0.1-3.9,0-8.2,0.2-13
			c0.2-4.7,0.5-9.1,0.7-13.3c0.3-4.1,0.6-7.7,0.9-10.8c0.3-3.1,0.5-5,0.6-5.7c-0.4-2-1.4-3.4-3-4.1c-1.6-0.7-3.2-1-4.9-0.7
			c-1.7,0.2-3.3,0.8-4.7,1.7c-1.4,0.9-2.2,2-2.4,3.3c-0.3,1.6-0.6,4-1,7.3c-0.4,3.3-0.8,6.9-1.3,10.9c-0.5,4-1.1,8.1-1.7,12.3
			c-0.6,4.2-1.3,8-2,11.5c-0.7,3.4-1.5,6.2-2.2,8.3c-0.8,2.1-1.6,3.1-2.5,3c-1-0.1-1.8-1.3-2.5-3.4c-0.6-2.1-1.2-4.9-1.6-8.1
			c-0.4-3.3-0.7-7-0.9-11c-0.1-4.1-0.2-8.1-0.2-12c0-3.9,0.1-7.6,0.3-10.9c0.2-3.3,0.5-6,0.7-8c0.3-1.3-0.4-2.3-1.9-3.1
			c-1.6-0.8-3.4-1.2-5.4-1.2c-2,0-3.8,0.4-5.3,1.2c-1.6,0.8-2.2,2.1-1.9,4c-0.3,2.4-0.4,5.1-0.4,7.9c0,2.9,0,5.7,0.1,8.7l0.3,15.5
			c-0.5,1.7-1.1,3.5-1.7,5.1c-1.4,3.7-3.1,6.1-5,7.2c-1.9,1.1-3.3,1-4-0.3c0.6-3.3,0.9-7.1,0.9-11.4c0-3.6-0.1-7.6-0.4-12
			c-0.3-4.4-1.1-8.6-2.4-12.6c-1.3-4-3.2-7.3-5.7-10.1c-2.5-2.7-5.9-4.1-10.2-4.3c-5.1,0-9.3,0.9-12.4,2.7c-3.1,1.8-5.6,4.1-7.4,7.1
			c-1.8,2.9-3,6.2-3.6,9.8c-0.6,3.6-1.1,7.2-1.4,10.8c-0.4,5.4-0.4,10.9,0.2,16.3c0.3,3,0.8,5.8,1.5,8.5c-0.3,0.8-0.7,1.7-1,2.4
			c-1.2,2.8-2.4,5.1-3.4,6.8c-1.1,1.8-2,2.5-2.9,2.3c-1.1-0.1-1.9-1.6-2.2-4.5c-0.4-2.9-0.6-6.3-0.6-10.4c-0.1-4.1-0.1-8.3-0.1-12.6
			c0-4.4-0.1-8.2-0.4-11.5c-0.1-1-0.8-2.1-1.9-3.2c-1.1-1.1-2.5-2.2-4.2-3.1c-1.6-0.9-3.4-1.7-5.1-2.5c-0.1,0-0.1,0-0.2-0.1
			l-0.2-0.2l0,0.1c-1.7-0.6-3.2-1.1-4.7-1.4c0,1,0,2,0,3c0,1,0,3.1,0,6.3c0,2.2,0,5.1,0.1,8.9c-0.1,0.5-0.3,1.1-0.4,1.6
			c-0.9,3.5-2,6.5-3.1,9.1c-0.7,1.6-1.8,3.6-3.1,6.1c-1.4,2.5-2.9,4.9-4.6,7.2c-1.7,2.3-3.6,4.2-5.6,5.7c-2,1.5-3.9,2-5.8,1.6
			c-2.3-0.3-4-1.6-5-4c-1.1-2.4-1.8-5-2.1-8c-0.4-3-0.5-6-0.3-8.9c0.1-2.9,0.3-5,0.4-6.3c0.1-2,0.5-4.5,1.1-7.4
			c0.6-2.9,1.4-5.8,2.5-8.6c1.1-2.8,2.4-5.3,4-7.5c1.6-2.2,3.4-3.6,5.6-4.2c1.4,0,1.8,1.4,1.2,4.3c-0.6,2.9-1.7,6.4-3.1,10.7
			c-0.7,1.9-0.8,3.4-0.2,4.7c0.6,1.3,1.4,2.1,2.5,2.6c1.1,0.4,2.3,0.4,3.6-0.2c1.4-0.6,2.4-1.7,3.1-3.4c1.4-3.6,2.4-7.1,2.9-10.7
			c0.5-3.6,0.3-6.8-0.6-9.6c-0.9-2.9-2.7-5.2-5.5-7.1c-2.7-1.9-6.5-2.9-11.3-3.2c-5,0-9,1.7-12.1,5.1c-3.1,3.4-5.5,7.5-7.2,12.3
			c-1.7,4.8-2.9,9.7-3.4,14.8c-0.6,5.1-0.9,9.3-0.9,12.7c0.1,3.1,0.3,5.9,0.6,8.6c-0.5,1.4-1.1,2.7-1.6,3.9
			c-1.2,2.8-2.4,5.1-3.4,6.8c-1.1,1.8-2,2.5-2.9,2.3c-1.1-0.1-1.9-1.6-2.3-4.5c-0.4-2.9-0.6-6.3-0.6-10.4c-0.1-4.1-0.1-8.3-0.1-12.6
			c0-4.4-0.1-8.2-0.4-11.5c-0.1-1-0.8-2.1-1.9-3.2c-1.1-1.1-2.5-2.2-4.2-3.1c-1.6-0.9-3.4-1.7-5.1-2.5c-1.8-0.7-3.5-1.2-5-1.5
			c0,1,0,2,0,3c0,1,0,3.1,0,6.3c0,3.2,0.1,8.1,0.2,14.8c0.1,6.6,0.4,16.1,0.6,28.4c0.3,7.3,1.3,12.3,3,15.1c1.7,2.8,4,4.2,6.9,4.2
			c2.7,0,5.3-1,7.7-3c2.4-2,4.7-4.6,6.7-7.9c2.1-3.3,4-6.9,5.7-10.9c0.1-0.3,0.2-0.5,0.3-0.8c0.2,0.5,0.5,0.9,0.8,1.3
			c1.7,2.6,4,4.7,7,6.2s6.7,2.3,11.2,2.5c5.3,0,9.9-1.8,13.9-5.5c4-3.6,7.3-8.3,10.1-13.9c0.3-0.7,0.6-1.4,0.9-2.1
			c0.1,4.4,0.2,9.3,0.3,14.9c0.3,7.3,1.3,12.3,3,15.1c1.7,2.8,4,4.2,6.9,4.2c2.7,0,5.3-1,7.7-3c2.4-2,4.7-4.6,6.7-7.9
			c2.1-3.3,4-6.9,5.7-10.9c0.2-0.4,0.3-0.9,0.5-1.3c1.4,2.3,3,4.4,4.8,6.2c3,2.9,6.8,4.4,11.3,4.5c4,0,7.3-1.1,10.1-3.4
			c2.7-2.3,4.9-5.3,6.6-9c1.4,0.4,3,0.6,4.7,0.6c2.7,0.1,5-0.6,7-2.4c1.3-1.2,2.5-2.6,3.6-4.3c0.3,1.9,0.6,3.7,1,5.5
			c0.9,3.6,2,6.5,3.5,8.8c1.5,2.3,3.5,3.4,6.1,3.4c1.6,0.1,2.9,0.2,4.1,0.1c1.1-0.1,2.1-0.1,2.8-0.1c1.4-0.1,3-1,4.7-2.6
			c1.7-1.6,2.9-3.6,3.4-6c0.3-1.3,0.6-2.8,0.9-4.5c0.3-1.7,0.6-3.4,0.9-4.9c0.3-0.9,0.5-1.7,0.6-2.7c0.1-0.9,0.3-1.9,0.4-2.9
			c0.6,4.1,1.1,7.6,1.7,10.4c0.6,2.8,1.2,5.4,1.9,7.8c0.9,2.9,2.2,4.5,4,4.8c1.8,0.4,3.7,0.6,5.7,0.8c3.4,0.1,6.4-0.8,8.8-2.7
			c2.4-1.9,4.5-4.5,6.1-7.8c1.6-3.3,3-7,4-11.1c0.6-2.4,1.1-4.8,1.5-7.1c1.1-2.6,2.1-5.2,3.1-7.9c1.5-4.1,3-8.1,4.4-12.2
			c1.4-4.1,2.6-7.7,3.6-11c-0.9,4.6-1.1,8.8-0.8,12.6c0.4,3.9,1,7.4,2,10.5c0.7,2.3,1.6,4.4,2.5,6.4c-3.4,3.6-7.3,8-11.8,13.1
			c-1.9,2.1-1.8,4.6-1.8,6.4c0,1.9,0.4,3.8,1.1,5.7c0.7,1.9,1.8,3.2,3.2,3.7c4.1,1.7,8.6,2.7,13.4,3.1c4.8,0.4,8.7-0.4,11.7-2.3
			c1.7-0.9,3-1.9,3.9-3.1c0.9-1.2,1.5-2.4,1.9-3.6c0.4-1.2,0.7-2.4,0.8-3.6c0.1-1.2,0.1-2.4,0.1-3.5
			C771.6,275,770.7,271.5,768.7,268.2z M650,245.8c-1.6,0.3-3.4,1.4-5.5,3.4c-2.1,2-3.4,4.4-4,7.1c-1,4.6-0.8,8.5,0.5,11.9
			c1.4,3.4,3.2,6,5.7,8c-1.1,2.6-2.2,3.9-3.2,3.9c-1.9,0.1-3.3-1.1-4.4-3.9c-1.1-2.7-1.8-6.1-2.1-10.3c-0.4-4.1-0.4-8.6-0.2-13.5
			c0.2-4.9,0.7-9.3,1.4-13.5c0.7-4.1,1.6-7.6,2.7-10.3c1.1-2.7,2.3-4,3.5-3.9c1.6,0.1,2.9,2.2,3.9,6.3c1,4.1,1.6,9,1.9,14.7H650z
			 M754.2,280.7c-0.8,1-3.9,3.8-4.5,1.1c-0.1-0.6,1.8-3.7,4.7-7.8c0.2,0.8,0.4,1.6,0.6,2.4C755.2,278.3,755,279.7,754.2,280.7z"/>
	</g>
</g>
</svg>
